<svg xmlns="http://www.w3.org/2000/svg" width="25.195" height="22.415" viewBox="0 0 25.195 22.415">
  <path id="heart_1_" d="M12.6,22.415a1.477,1.477,0,0,1-.974-.366c-1.018-.89-2-1.726-2.865-2.464l0,0A53.279,53.279,0,0,1,2.5,13.71,9.378,9.378,0,0,1,0,7.572,7.875,7.875,0,0,1,2,2.194,6.775,6.775,0,0,1,7.038,0,6.337,6.337,0,0,1,11,1.367a8.1,8.1,0,0,1,1.6,1.671,8.1,8.1,0,0,1,1.6-1.671A6.337,6.337,0,0,1,18.156,0,6.775,6.775,0,0,1,23.2,2.194a7.874,7.874,0,0,1,2,5.378,9.376,9.376,0,0,1-2.5,6.138,53.274,53.274,0,0,1-6.255,5.871c-.867.739-1.85,1.577-2.87,2.469a1.478,1.478,0,0,1-.974.366ZM7.038,1.476A5.315,5.315,0,0,0,3.084,3.194,6.406,6.406,0,0,0,1.476,7.572a7.89,7.89,0,0,0,2.159,5.2,52.43,52.43,0,0,0,6.076,5.69l0,0c.869.741,1.854,1.58,2.879,2.477,1.031-.9,2.018-1.739,2.889-2.481a52.444,52.444,0,0,0,6.076-5.689,7.891,7.891,0,0,0,2.159-5.2,6.406,6.406,0,0,0-1.608-4.378,5.315,5.315,0,0,0-3.955-1.718A4.895,4.895,0,0,0,15.1,2.534,7.162,7.162,0,0,0,13.4,4.5a.932.932,0,0,1-1.6,0,7.155,7.155,0,0,0-1.7-1.971A4.895,4.895,0,0,0,7.038,1.476Zm0,0" transform="translate(0 0)" fill="#fff"/>
</svg>
