<svg id="user-2" xmlns="http://www.w3.org/2000/svg" width="18.12" height="23.177" viewBox="0 0 18.12 23.177">
  <g id="Group_168" transform="translate(0 0)">
    <path id="Path_39" d="M70.87,22.587v-3.25A9.078,9.078,0,0,0,64.6,10.719a5.724,5.724,0,1,0-5.589,0,9.072,9.072,0,0,0-6.265,8.619v3.25a.589.589,0,0,0,.59.59H70.29A.59.59,0,0,0,70.87,22.587ZM57.256,5.724a4.549,4.549,0,1,1,4.549,4.549A4.556,4.556,0,0,1,57.256,5.724ZM69.7,22H53.915V19.333a7.89,7.89,0,1,1,15.781,0Z" transform="translate(-52.75 0)" fill="#fff"/>
  </g>
</svg>
