<svg id="stopclock" xmlns="http://www.w3.org/2000/svg" width="61.776" height="71.819" viewBox="0 0 61.776 71.819">
  <path id="Path_262" d="M280.4,279.323q.035.579.035,1.158a21.343,21.343,0,0,1-6.1,14.82l-18.58-15.892Z" transform="translate(-225.167 -240.819)" fill="#00abc7"/>
  <path id="Path_263" d="M283.066,140.9l-27.308.085V119.67C270.4,119.67,282.337,129.068,283.066,140.9Z" transform="translate(-227.821 -102.673)" fill="#00bbc8"/>
  <path id="Path_264" d="M111.768,142.572l18.31,16.97a24.2,24.2,0,1,1-18.31-39.872v22.9Z" transform="translate(-81.537 -103.71)" fill="#ff7474"/>
  <path id="Path_265" d="M86.628,61.314A23.064,23.064,0,0,0,92.359,46.07q0-.6-.033-1.191a23.173,23.173,0,1,0-5.7,16.436ZM96.72,16,94.5,19.828l-2.86-1.666-3.07,5.306a29.81,29.81,0,1,1-22.712-6.993v-4.6H60.339V7.463H78v4.412H72.484v4.6a29.839,29.839,0,0,1,10.6,3.254L85.9,14.854,83.04,13.2l2.208-3.817Z" transform="translate(-38.581 -6.667)" fill="#d1d1d1"/>
  <g id="Group_334">
    <path id="Path_267" d="M105.632,112.207c-14.052,0-25.485,11.162-25.485,24.881s11.433,24.881,25.485,24.881a25.766,25.766,0,0,0,19.186-8.506,24.512,24.512,0,0,0,6.3-16.375c0-.425-.012-.856-.036-1.281C130.395,122.573,119.217,112.207,105.632,112.207ZM128.9,135.922c.022.387.033.779.033,1.166a22.382,22.382,0,0,1-5.033,14.119l-15.5-14.185h8.85v-2.135H106.725V117.81h-2.186v18.606l17.919,16.4a23.581,23.581,0,0,1-16.826,7.018c-12.847,0-23.3-10.2-23.3-22.746s10.452-22.746,23.3-22.746A23.033,23.033,0,0,1,128.9,135.917Z" transform="translate(-75.015 -97.101)" fill="#51565f"/>
    <path id="Path_268" d="M34.137,40.467a29.613,29.613,0,0,1,7.387-19.634,28.493,28.493,0,0,1,18.168-9.52l.925-.1V4.5H55.1V2.119H70.676V4.5H65.16v6.7l.924.1a28.265,28.265,0,0,1,10.223,3.206l.884.474,3.831-6.775L78.164,6.528l1.168-2.062L89,10.162l-1.174,2.069-2.858-1.7-4.02,7.1.654.573a29.267,29.267,0,0,1,6.491,8.14l1.819-1.023a31.381,31.381,0,0,0-6.31-8.142l2.12-3.744,2.857,1.7,3.261-5.745L78.573,1.571,75.327,7.3,78.186,8.99l-1.8,3.192a30.258,30.258,0,0,0-9.145-2.858v-2.7h5.517v-4.5h2.272V0H50.752V2.119h2.272v4.5H58.54v2.7a30.58,30.58,0,0,0-18.558,10.09,31.912,31.912,0,0,0,2.351,44.5l1.385-1.579A29.656,29.656,0,0,1,34.137,40.467Z" transform="translate(-32.06)" fill="#51565f"/>
    <path id="Path_269" d="M170.218,196.83l-1.917.868a29.483,29.483,0,0,1-26.553,41.4,28.61,28.61,0,0,1-17.228-5.721l-1.246,1.71a30.679,30.679,0,0,0,18.474,6.136,31.612,31.612,0,0,0,28.47-44.391Z" transform="translate(-111.141 -169.402)" fill="#51565f"/>
  </g>
  <path id="Path_270" d="M129.846,280.044h-1.61a13.651,13.651,0,0,0,13.636,13.636v-1.61A12.039,12.039,0,0,1,129.846,280.044Z" transform="translate(-113.936 -238.964)" fill="#fff"/>
  <rect id="Rectangle_370" width="1.711" height="1.61" transform="translate(33.075 54.05)" fill="#51565f"/>
  <rect id="Rectangle_371" width="1.711" height="1.61" transform="translate(44.123 37.504)" fill="#fff"/>
  <rect id="Rectangle_372" width="1.711" height="1.61" transform="translate(48.541 37.504)" fill="#51565f"/>
</svg>
