<svg id="surgeon" xmlns="http://www.w3.org/2000/svg" width="70" height="70.043" viewBox="0 0 70 70.043">
  <g id="Group_139" transform="translate(0.415 0.474)">
    <path id="Path_28" d="M151.5,156.866v7.592c0,1.044-1.223,1.9-2.719,1.9,0,0-.951,2.942-2.175,5.884l-.951-.19s-10.33,0-17.127-1.9c-6.8,1.9-17.127,1.9-17.127,1.9l-1.087.19c-1.359-3.037-2.311-5.884-2.311-5.884-1.5,0-2.719-.854-2.719-1.9v-7.592H151.5Z" transform="translate(-93.899 -133.774)" fill="#ffd0a1"/>
    <path id="Path_29" d="M151.5,10.858v9.49H105.287v-9.49c0-4.365,4.486-7.592,10.874-7.592h25.826c6.253,0,9.515,3.321,9.515,7.592m-17.67,1.9c0-2.088-2.447-3.8-5.437-3.8s-5.437,1.708-5.437,3.8,2.447,3.8,5.437,3.8S133.832,14.843,133.832,12.756Zm11.69,22.775.951.19a24.671,24.671,0,0,1-3.126,5.5c-1.631,1.8-5.437,5.694-14.952,5.694s-13.321-3.891-14.952-5.694a17.755,17.755,0,0,1-3.126-5.5l1.087-.19s10.33,0,17.127-1.9C135.191,35.531,145.521,35.531,145.521,35.531Z" transform="translate(-93.899 -3.266)" fill="#ecf4f7"/>
    <path id="Path_30" d="M108.134,447a2.847,2.847,0,1,1-2.847,2.847A2.8,2.8,0,0,1,108.134,447" transform="translate(-90.68 -383.695)" fill="#aab1ba"/>
    <g id="Group_138" transform="translate(0 5.694)">
      <path id="Path_31" d="M144.172,422.356H130.887a2.847,2.847,0,1,0,0-5.694v-1.9h2.847l3.8-1.9,6.643,5.694Z" transform="translate(-111.897 -359.051)" fill="#80d6fa"/>
      <path id="Path_32" d="M17.121,431.831a2.847,2.847,0,0,0,0,5.694H2.887l.949-2.847c.854-2.467,2.562-4.46,13.286-4.745Z" transform="translate(-2.887 -374.22)" fill="#80d6fa"/>
      <path id="Path_33" d="M220.016,54.467a3.8,3.8,0,1,1-3.8,3.8,3.807,3.807,0,0,1,3.8-3.8" transform="translate(-185.521 -54.467)" fill="#80d6fa"/>
      <path id="Path_34" d="M276.924,419.51l.949,2.847h-27.52v-3.8L257,412.867l3.8,1.9c13.286,0,15.278,2.088,16.133,4.745" transform="translate(-208.883 -359.052)" fill="#80d6fa"/>
    </g>
  </g>
  <path id="Path_35" d="M69.411,69.924a.652.652,0,0,1-.593-.356l-1.185-3.555c-1.067-2.963-3.2-5.57-19.555-5.57h0a49.23,49.23,0,0,1-4.622-2.252l-7.822,6.637v4.5a.593.593,0,1,1-1.185,0v-4.5l-7.822-6.637-4.385,2.252c-.118,0-.118,0-.237.118H19.042v1.185A4.117,4.117,0,0,1,22.6,65.895a4.148,4.148,0,1,1-4.741-4.148V60.561c-12.681.356-14.577,2.726-15.407,5.452L1.264,69.569a.528.528,0,0,1-.711.356A.528.528,0,0,1,.2,69.213l1.185-3.555c1.067-3.2,3.2-5.926,16.948-6.281a.361.361,0,0,1,.474,0H22l4.622-2.252c.237-.118.474-.118.593.118L35.16,64l7.94-6.755c.237-.118.474-.237.593-.118,0,0,3.911,1.9,4.622,2.252,17.066,0,19.437,2.844,20.622,6.281l1.185,3.555a.575.575,0,0,1-.356.711ZM18.449,62.813a2.963,2.963,0,1,0,2.963,2.963A2.934,2.934,0,0,0,18.449,62.813ZM35.041,55.7c-8.652,0-12.089-5.215-13.511-7.348-2.133-3.2-4.267-11.97-4.741-13.985A2.95,2.95,0,0,1,14.3,31.407V26.666a.593.593,0,0,1,1.185,0v4.741a1.823,1.823,0,0,0,1.778,1.778.788.788,0,0,1,.593.474s.711,3.318,1.778,6.874a.616.616,0,0,1,.474-.237c.118,0,9.007,0,14.7-2.37h.474c5.807,2.252,14.577,2.37,14.7,2.37a.615.615,0,0,1,.474.237c1.067-3.555,1.778-6.755,1.778-6.874a.787.787,0,0,1,.593-.474A1.823,1.823,0,0,0,54.6,31.407V26.666a.593.593,0,0,1,1.185,0v4.741a3.043,3.043,0,0,1-2.489,2.963c-.474,2.015-2.607,10.785-4.741,13.985C47.13,50.488,43.693,55.7,35.041,55.7ZM19.99,41.481A21.8,21.8,0,0,0,22.6,47.643c1.541,2.252,4.622,6.874,12.563,6.874S46.182,49.9,47.722,47.643a28.23,28.23,0,0,0,2.607-6.163h-.118c-.356,0-9.007,0-14.933-2.37-5.926,2.252-14.577,2.37-14.933,2.37Zm20.977-8.3a.56.56,0,0,1-.593-.593V32H38.6a.593.593,0,0,1,0-1.185h4.741a.593.593,0,1,1,0,1.185H41.559v.593A.56.56,0,0,1,40.967,33.184Zm-11.852,0a.56.56,0,0,1-.593-.593V32H26.745a.593.593,0,0,1,0-1.185h4.741a.593.593,0,0,1,0,1.185H29.708v.593A.56.56,0,0,1,29.115,33.184ZM55.189,22.518h-40.3a.56.56,0,0,1-.593-.593V10.074A9.778,9.778,0,0,1,24.375,0H46.893c5.452,0,8.889,3.911,8.889,10.074V21.925A.56.56,0,0,1,55.189,22.518Zm-39.7-1.185H54.6V10.074c0-4.267-2.015-8.889-7.7-8.889H24.375a8.66,8.66,0,0,0-8.889,8.889V21.333Zm19.555-3.555a5.333,5.333,0,1,1,5.333-5.333A5.311,5.311,0,0,1,35.041,17.777Zm0-9.481a4.148,4.148,0,1,0,4.148,4.148A4.2,4.2,0,0,0,35.041,8.3Zm15.407,4.741H40.967a.593.593,0,1,1,0-1.185h9.481a.593.593,0,1,1,0,1.185Zm-21.333,0H19.634a.593.593,0,0,1,0-1.185h9.481a.593.593,0,1,1,0,1.185Z" transform="translate(-0.153)" fill="#51565f"/>
</svg>
