<svg id="hospital" xmlns="http://www.w3.org/2000/svg" width="70" height="70" viewBox="0 0 70 70">
  <g id="Group_141" transform="translate(0.475 0.475)">
    <path id="Path_36" d="M139.8,201.747v-44.88h30.55v44.88Z" transform="translate(-120.597 -134.594)" fill="#ecf4f7"/>
    <path id="Path_37" d="M208.067,378.53h12.258V361.667H208.067Z" transform="translate(-179.474 -311.376)" fill="#ff7474"/>
    <g id="Group_140" transform="translate(0 0)">
      <path id="Path_38" d="M10.41,17.553h4.762V10.41H10.41Zm0,14.286h4.762V24.7H10.41ZM27.078,17.553H31.84V10.41H27.078Zm16.668,0h4.762V10.41H43.745Zm16.668,0h4.762V10.41H60.413Zm0,14.286h4.762V24.7H60.413Zm0,14.286h4.762V38.983H60.413Zm0,14.286h4.762V53.27H60.413Zm-50-14.286h4.762V38.983H10.41Zm2.381,14.286c0-4.762-1.19-14.286-4.762-14.286S3.267,55.651,3.267,60.413V3.267H72.318v66.67a2.424,2.424,0,0,0-3.691-2.024,3.546,3.546,0,0,0-6.905,0,2.394,2.394,0,1,0-1.31,4.405H53.269V24.7H22.316v45.24H19.934v2.381H8.029V65.175a4.776,4.776,0,0,0,4.762-4.762Z" transform="translate(-3.267 -3.267)" fill="#ecf4f7"/>
      <path id="Path_39" d="M7.063,416.663v5.694h-3.8v-9.49a3.807,3.807,0,0,0,3.8,3.8" transform="translate(-3.267 -353.306)" fill="#ecf4f7"/>
      <path id="Path_40" d="M149.3,481.133v1.9H122.733v-1.9H149.3Z" transform="translate(-102.909 -413.98)" fill="#ecf4f7"/>
    </g>
    <path id="Path_41" d="M8.029,310.467c3.572,0,4.762,9.289,4.762,13.934a4.718,4.718,0,0,1-4.762,4.645A4.718,4.718,0,0,1,3.267,324.4C3.267,319.756,4.457,310.467,8.029,310.467Zm61.908,20.9a2.323,2.323,0,1,1,0,4.645H60.413a2.323,2.323,0,1,1,0-4.645,2.446,2.446,0,0,1,1.31.348,3.567,3.567,0,0,1,6.905,0A2.445,2.445,0,0,1,69.937,331.368Z" transform="translate(-3.267 -266.962)" fill="#50dd8e"/>
    <path id="Path_42" d="M88.348,61.592h4.84V54.467h-4.84Zm-16.941,0h4.84V54.467h-4.84Zm-16.941,28.5h4.84V82.966h-4.84Zm0-14.25h4.84V68.717h-4.84Zm0-14.25h4.84V54.467h-4.84Zm50.822,42.749h4.84V97.216h-4.84Zm0-14.25h4.84V82.966h-4.84Zm0-14.25h4.84V68.717h-4.84Zm0-14.25h4.84V54.467h-4.84Z" transform="translate(-47.773 -46.773)" fill="#80d6fa"/>
  </g>
  <path id="Path_43" d="M67.034,70a.593.593,0,1,1,0-1.187,1.78,1.78,0,0,0,0-3.559,2.234,2.234,0,0,0-.949.237.53.53,0,0,1-.593,0c-.237-.119-.356-.237-.356-.475a3.029,3.029,0,0,0-2.847-2.254,2.924,2.924,0,0,0-2.847,2.254c0,.237-.119.356-.356.475s-.356,0-.593,0a1.278,1.278,0,0,0-.949-.237,1.78,1.78,0,0,0,0,3.559.593.593,0,1,1,0,1.187,2.966,2.966,0,0,1,0-5.932,2.614,2.614,0,0,1,.949.119,4.138,4.138,0,0,1,7.593,0,2.8,2.8,0,0,1,2.729.475V1.186H1.186V38.559a.561.561,0,0,1-.593.593A.56.56,0,0,1,0,38.559V.593A.561.561,0,0,1,.593,0H69.407A.561.561,0,0,1,70,.593V67.034A2.937,2.937,0,0,1,67.034,70ZM17.2,70a.561.561,0,0,1-.593-.593V67.034a.561.561,0,0,1,.593-.593h33.22a.593.593,0,0,1,0,1.187H17.8v1.78A.561.561,0,0,1,17.2,70ZM5.339,70a.561.561,0,0,1-.593-.593V62.881A5.483,5.483,0,0,1,0,57.542C0,53.39.949,42.712,5.339,42.712s5.339,10.678,5.339,14.831a5.483,5.483,0,0,1-4.746,5.339v6.525A.561.561,0,0,1,5.339,70Zm0-26.1c-2.729,0-4.153,8.068-4.153,13.644a4.2,4.2,0,0,0,4.153,4.153,4.2,4.2,0,0,0,4.153-4.153C9.492,51.966,8.068,43.9,5.339,43.9ZM50.424,62.881a.561.561,0,0,1-.593-.593V22.542H20.17V62.288a.593.593,0,1,1-1.187,0V21.949a.561.561,0,0,1,.593-.593H50.424a.561.561,0,0,1,.593.593V62.288A.561.561,0,0,1,50.424,62.881Zm-9.492,0a.561.561,0,0,1-.593-.593V51.017H29.661V62.288a.593.593,0,1,1-1.186,0V51.017H24.322a.593.593,0,0,1,0-1.187H45.678a.593.593,0,0,1,0,1.187H41.525V62.288A.56.56,0,0,1,40.932,62.881Zm21.356-4.746H57.542a.561.561,0,0,1-.593-.593V50.424a.561.561,0,0,1,.593-.593h4.746a.561.561,0,0,1,.593.593v7.119A.56.56,0,0,1,62.288,58.136Zm-4.153-1.186h3.559V51.017H58.136ZM62.288,43.9H57.542a.561.561,0,0,1-.593-.593V36.186a.561.561,0,0,1,.593-.593h4.746a.561.561,0,0,1,.593.593v7.119A.56.56,0,0,1,62.288,43.9Zm-4.153-1.186h3.559V36.78H58.136ZM12.458,43.9a.561.561,0,0,1-.593-.593V36.78H8.305v1.78a.593.593,0,0,1-1.187,0V36.186a.561.561,0,0,1,.593-.593h4.746a.561.561,0,0,1,.593.593v7.119A.56.56,0,0,1,12.458,43.9Zm26.1-2.373a.561.561,0,0,1-.593-.593V36.78H32.034v4.153a.593.593,0,1,1-1.187,0V31.441a.593.593,0,1,1,1.187,0v4.153h5.932V31.441a.593.593,0,1,1,1.187,0v9.492A.561.561,0,0,1,38.559,41.526ZM62.288,29.661H57.542a.561.561,0,0,1-.593-.593V21.949a.561.561,0,0,1,.593-.593h4.746a.561.561,0,0,1,.593.593v7.119A.56.56,0,0,1,62.288,29.661Zm-4.153-1.186h3.559V22.542H58.136ZM12.458,29.661H7.712a.561.561,0,0,1-.593-.593V21.949a.561.561,0,0,1,.593-.593h4.746a.561.561,0,0,1,.593.593v7.119A.56.56,0,0,1,12.458,29.661ZM8.305,28.475h3.559V22.542H8.305ZM62.288,15.424H57.542a.561.561,0,0,1-.593-.593V7.712a.561.561,0,0,1,.593-.593h4.746a.561.561,0,0,1,.593.593V14.83A.56.56,0,0,1,62.288,15.424Zm-4.153-1.186h3.559V8.305H58.136ZM45.678,15.424H40.932a.561.561,0,0,1-.593-.593V7.712a.561.561,0,0,1,.593-.593h4.746a.561.561,0,0,1,.593.593V14.83A.56.56,0,0,1,45.678,15.424Zm-4.152-1.186h3.559V8.305H41.525ZM29.068,15.424H24.322a.561.561,0,0,1-.593-.593V7.712a.561.561,0,0,1,.593-.593h4.746a.561.561,0,0,1,.593.593V14.83A.561.561,0,0,1,29.068,15.424Zm-4.153-1.186h3.559V8.305H24.915ZM12.458,15.424H7.712a.561.561,0,0,1-.593-.593V7.712a.561.561,0,0,1,.593-.593h4.746a.561.561,0,0,1,.593.593V14.83A.56.56,0,0,1,12.458,15.424ZM8.305,14.237h3.559V8.305H8.305Z" fill="#51565f"/>
</svg>
