<svg xmlns="http://www.w3.org/2000/svg" width="70" height="70" viewBox="0 0 70 70">
  <g id="pill" transform="translate(1 6)">
    <g id="Group_16908" transform="translate(0 -3)">
      <g id="Group_148" transform="translate(-0.527 -2.527)">
        <g id="Group_16907" transform="translate(0 0)">
          <path id="Path_63" d="M206.319,20.7A17.5,17.5,0,0,1,201.2,33.028L184.927,49.3,160.28,24.658,176.556,8.381A17.428,17.428,0,0,1,206.319,20.7" transform="translate(-137.676 -2.266)" fill="#ff7474"/>
          <path id="Path_64" d="M51.341,186.017,34.466,202.891a17.955,17.955,0,0,1-12.99,5.463A18.2,18.2,0,0,1,8.608,177.276l17-17,25.737,25.737Z" transform="translate(-3.266 -139.074)" fill="#80d6fa"/>
        </g>
      </g>
      <path id="Path_65" d="M18.39,70A18.482,18.482,0,0,1,0,51.61v-.593c0-4.509,0-6.644,5.339-12.339,5.458-5.695,16.491-16.491,16.61-16.61a.573.573,0,0,1,.83,0l24.8,24.8L63.712,30.729A17.2,17.2,0,0,0,51.61,1.305,17.432,17.432,0,0,0,39.39,6.288L26.1,19.576a.587.587,0,0,1-.83-.83L38.559,5.339A18.293,18.293,0,0,1,51.61,0,18.482,18.482,0,0,1,70,18.39a18.706,18.706,0,0,1-5.339,13.051h0c-.119.237-.356.356-.712.712l-15.9,15.9c-.119.119-.237.119-.475.119h0c-.119,0-.356-.119-.475-.119l-24.8-24.8C20.17,25.271,10.915,34.407,6.17,39.508c-5.1,5.339-5.1,7.237-5.1,11.509v.593a17.216,17.216,0,0,0,17.2,17.2,16.507,16.507,0,0,0,12.22-5.22L43.779,50.424a.587.587,0,0,1,.83.83L31.44,64.424A18.035,18.035,0,0,1,18.39,70ZM8.305,55.881a.652.652,0,0,1-.593-.356A10.451,10.451,0,0,1,7,51.61a14.061,14.061,0,0,1,.593-3.8.529.529,0,0,1,.712-.356c.237.119.475.475.356.712a10.9,10.9,0,0,0-.593,3.322,11.024,11.024,0,0,0,.593,3.441.5.5,0,0,1-.356.712C8.542,55.881,8.424,55.881,8.305,55.881Zm53.983-36.9a.561.561,0,0,1-.593-.593,10.134,10.134,0,0,0-4.39-8.305.593.593,0,1,1,.712-.949,11.213,11.213,0,0,1,4.864,9.254A.56.56,0,0,1,62.288,18.983Z" transform="translate(-1 -3)" fill="#51565f"/>
    </g>
  </g>
</svg>
