<svg id="medical-history" xmlns="http://www.w3.org/2000/svg" width="60.508" height="70" viewBox="0 0 60.508 70">
  <g id="Group_144" transform="translate(0.475 0.475)">
    <path id="Path_49" d="M164.255,8.012a.949.949,0,1,0-.949.949.951.951,0,0,0,.949-.949Zm9.49,2.847v1.9H152.867V7.063h5.789a4.746,4.746,0,0,1,9.3,0h5.789Z" transform="translate(-133.526 -3.267)" fill="#80d6fa"/>
    <path id="Path_50" d="M92.96,42.234V97.821a5.161,5.161,0,0,1-4.765,4.834H38.166A5.161,5.161,0,0,1,33.4,97.821V42.234A5.161,5.161,0,0,1,38.166,37.4H50.077v4.834H38.166V94.2a3.535,3.535,0,0,0,3.574,3.625H81.048L88.2,90.571V42.234H76.284V37.4H88.2a5.162,5.162,0,0,1,4.765,4.834" transform="translate(-33.401 -33.604)" fill="#aab1ba"/>
    <path id="Path_51" d="M119.5,71.533v47.635h-9.9a2.583,2.583,0,0,0-2.475,2.507V129.2H71.245a3.67,3.67,0,0,1-3.712-3.761v-53.9H79.906V74.04h27.221V71.533Zm-9.9,30.085a2.475,2.475,0,1,0,2.475-2.507,2.5,2.5,0,0,0-2.475,2.507Z" transform="translate(-63.737 -63.941)" fill="#ecf4f7"/>
    <path id="Path_52" d="M359.564,259.267a1.9,1.9,0,1,1-1.9,1.9,1.9,1.9,0,0,1,1.9-1.9" transform="translate(-311.601 -223.014)" fill="#ff7474"/>
    <path id="Path_53" d="M350.09,395.8v1.9l-5.694,5.694h-3.8V397.7a1.968,1.968,0,0,1,1.9-1.9Z" transform="translate(-294.326 -338.137)" fill="#aab1ba"/>
  </g>
  <path id="Path_54" d="M89.3,70H39.472a5.648,5.648,0,0,1-5.339-5.339V10.085a5.648,5.648,0,0,1,5.339-5.339h7.119a.561.561,0,0,1,.593.593.561.561,0,0,1-.593.593H39.472a4.565,4.565,0,0,0-4.153,4.153V64.661a4.565,4.565,0,0,0,4.153,4.153H89.3a4.565,4.565,0,0,0,4.153-4.153V10.085A4.565,4.565,0,0,0,89.3,5.932H82.184a.561.561,0,0,1-.593-.593.561.561,0,0,1,.593-.593H89.3a5.648,5.648,0,0,1,5.339,5.339V64.661A5.648,5.648,0,0,1,89.3,70Zm-7.119-4.746a.713.713,0,0,1-.475-.119.573.573,0,0,1,0-.83l7-7V10.678H82.184a.593.593,0,0,1,0-1.187H89.3a.561.561,0,0,1,.593.593V57.542c0,.119-.119.356-.119.475l-7.119,7.119A.714.714,0,0,1,82.184,65.254Zm-4.746,0H43.031A4.2,4.2,0,0,1,38.879,61.1V10.085a.561.561,0,0,1,.593-.593h7.119a.593.593,0,0,1,0,1.187H40.065V61.1a2.937,2.937,0,0,0,2.966,2.966H76.845V57.542a3.1,3.1,0,0,1,2.966-2.966h4.746a.593.593,0,0,1,0,1.187H79.811a1.913,1.913,0,0,0-1.78,1.78v7.119A.56.56,0,0,1,77.438,65.254ZM63.2,53.39h0a.652.652,0,0,1-.593-.356l-8.9-26.813L49.557,38.8a.652.652,0,0,1-.593.356H44.218a.593.593,0,0,1,0-1.187h4.271l4.627-13.881a.578.578,0,0,1,1.068,0L63.2,51.017,70.913,31.2c.119-.237.237-.356.475-.356a.653.653,0,0,1,.593.356l3.441,6.763h3.8a2.993,2.993,0,1,1,2.966,3.559,3.168,3.168,0,0,1-2.966-2.373H75.065c-.237,0-.475-.119-.475-.356l-2.966-5.932-7.83,20.051A.605.605,0,0,1,63.2,53.39ZM82.184,36.78a1.78,1.78,0,1,0,1.78,1.78A1.825,1.825,0,0,0,82.184,36.78ZM77.438,13.051h-26.1a.561.561,0,0,1-.593-.593V5.339a.561.561,0,0,1,.593-.593H58.1a6.539,6.539,0,0,1,12.576,0h6.763a.561.561,0,0,1,.593.593v7.119A.561.561,0,0,1,77.438,13.051ZM51.93,11.864H76.845V5.932H70.2a.789.789,0,0,1-.593-.475,5.326,5.326,0,0,0-10.441,0c0,.237-.356.475-.593.475H51.929v5.932ZM64.387,8.305a1.825,1.825,0,0,1-1.78-1.78,1.78,1.78,0,1,1,3.559,0A1.825,1.825,0,0,1,64.387,8.305Zm0-2.373a.561.561,0,0,0-.593.593.593.593,0,1,0,1.187,0A.56.56,0,0,0,64.387,5.932Z" transform="translate(-34.133)" fill="#51565f"/>
</svg>
