<?xml version="1.0" standalone="no"?>
<!DOCTYPE svg PUBLIC "-//W3C//DTD SVG 20010904//EN"
 "http://www.w3.org/TR/2001/REC-SVG-20010904/DTD/svg10.dtd">
<svg version="1.0" xmlns="http://www.w3.org/2000/svg"
 width="179.000000pt" height="179.000000pt" viewBox="0 0 179.000000 179.000000"
 preserveAspectRatio="xMidYMid meet">
<metadata>
Created by potrace 1.16, written by Peter Selinger 2001-2019
</metadata>
<g transform="translate(0.000000,179.000000) scale(0.100000,-0.100000)"
fill="#000000" stroke="none">
<path d="M787 1771 c-42 -6 -55 -14 -96 -59 -26 -29 -50 -49 -54 -46 -8 9 -30
-43 -32 -78 -2 -15 1 -25 6 -22 5 3 9 -4 9 -16 0 -13 -4 -19 -11 -14 -15 9
-29 -14 -29 -48 0 -15 -5 -30 -10 -33 -12 -7 -11 -120 1 -154 7 -18 12 -21 23
-12 7 6 16 8 19 4 4 -3 7 9 7 29 0 44 24 126 61 205 20 43 39 68 65 84 34 21
40 21 83 9 78 -22 245 -15 262 12 3 5 18 4 34 -2 18 -7 32 -7 38 -1 14 14 -2
51 -23 51 -29 0 -50 11 -50 26 0 7 -6 11 -14 8 -8 -3 -17 -1 -21 5 -3 7 3 11
15 11 34 0 18 24 -21 31 -54 11 -160 16 -147 7 8 -5 2 -8 -17 -8 -23 0 -27 3
-15 10 18 11 -5 11 -83 1z"/>
<path d="M1028 1362 c-16 -2 -28 -6 -29 -10 -15 -102 -1 -135 63 -154 39 -11
41 -12 16 -16 -32 -4 -31 -2 -18 -36 14 -37 3 -56 -32 -56 -16 0 -36 -7 -44
-15 -20 -19 -55 -19 -80 0 -10 8 -29 15 -41 15 -29 0 -31 30 -3 37 11 3 20 14
20 24 0 11 5 19 10 19 6 0 10 8 10 17 0 23 23 86 37 100 17 19 5 52 -17 46
-10 -3 -30 3 -44 12 -30 20 -90 16 -151 -9 -36 -16 -50 -42 -16 -31 34 10 31
-10 -6 -40 -34 -26 -35 -29 -18 -42 11 -7 15 -13 11 -13 -5 0 3 -9 17 -20 14
-11 30 -20 36 -20 16 0 13 -27 -5 -55 -16 -25 -16 -108 0 -150 6 -13 0 -10
-18 10 -31 36 -25 11 11 -47 26 -42 43 -49 43 -17 0 15 5 19 15 15 8 -3 15 -2
15 3 0 15 44 0 75 -25 17 -13 25 -24 18 -24 -6 0 -18 -13 -26 -29 -12 -25 -13
-37 -1 -81 7 -29 18 -57 23 -64 6 -7 5 -18 -4 -30 -13 -18 -15 -18 -41 3 -40
32 -52 27 -56 -21 -2 -28 -7 -42 -15 -40 -7 1 -13 0 -13 -3 0 -13 50 -108 87
-166 50 -78 103 -197 139 -317 15 -48 30 -91 34 -95 4 -5 29 -3 55 5 34 9 49
19 52 33 9 50 6 85 -10 103 -9 10 -14 22 -10 26 4 4 -3 9 -15 13 -29 7 -18 23
16 23 25 1 26 1 7 12 -11 6 -21 12 -23 13 -2 2 17 43 41 91 38 76 87 208 87
234 0 4 -15 -7 -34 -26 -43 -43 -91 -46 -126 -9 -19 20 -22 31 -16 64 5 32 2
45 -13 60 -12 12 -16 23 -10 32 19 30 10 56 -23 65 -38 11 -47 30 -19 39 26 8
28 50 4 64 -15 8 -15 11 8 35 13 14 33 26 44 26 11 0 31 7 45 15 19 10 28 10
38 2 11 -8 18 -5 33 13 30 38 17 120 -31 197 -13 19 -12 24 11 42 21 18 22 20
5 21 -15 0 -16 2 -6 15 9 11 22 14 44 9 l31 -6 -24 26 c-13 14 -32 28 -43 32
-22 7 -24 24 -3 24 18 0 20 20 3 20 -7 1 -31 4 -53 8 -22 4 -52 6 -67 4z m69
-308 c41 -31 41 -39 3 -53 -16 -5 -30 -16 -30 -24 0 -22 -25 -29 -119 -33 -90
-4 -112 4 -104 36 4 16 0 20 -22 20 -32 0 -30 23 3 28 15 2 25 -4 34 -22 10
-23 26 -31 51 -27 4 1 16 -3 27 -9 12 -7 21 -7 25 0 3 5 14 10 25 10 10 0 20
7 24 15 4 11 -1 15 -17 15 -19 1 -17 5 18 35 22 19 42 35 44 35 2 0 19 -11 38
-26z"/>
<path d="M602 722 c-25 -17 -8 -65 44 -121 59 -64 76 -94 68 -114 -3 -8 2 -21
10 -30 9 -9 14 -21 12 -29 -2 -7 -7 -26 -10 -43 -5 -22 -4 -26 4 -15 5 8 10
25 10 38 0 12 5 22 10 22 6 0 15 12 20 26 15 39 -16 98 -89 169 -65 64 -72 75
-42 75 10 0 21 7 25 15 4 11 -2 15 -22 15 -15 0 -33 -4 -40 -8z"/>
<path d="M1290 714 c0 -3 13 -25 30 -49 16 -24 44 -83 61 -132 18 -48 33 -89
34 -90 6 -9 75 21 75 33 0 25 -55 137 -85 172 -32 38 -115 86 -115 66z"/>
<path d="M1245 365 l0 -273 29 15 29 15 -6 176 c-4 161 -22 287 -45 328 -4 7
-7 -111 -7 -261z"/>
</g>
</svg>
