<?xml version="1.0" standalone="no"?>
<!DOCTYPE svg PUBLIC "-//W3C//DTD SVG 20010904//EN"
 "http://www.w3.org/TR/2001/REC-SVG-20010904/DTD/svg10.dtd">
<svg version="1.0" xmlns="http://www.w3.org/2000/svg"
 width="179.000000pt" height="179.000000pt" viewBox="0 0 179.000000 179.000000"
 preserveAspectRatio="xMidYMid meet">
<metadata>
Created by potrace 1.16, written by Peter Selinger 2001-2019
</metadata>
<g transform="translate(0.000000,179.000000) scale(0.100000,-0.100000)"
fill="#000000" stroke="none">
<path d="M797 1764 c-83 -13 -90 -16 -155 -67 -71 -57 -111 -97 -97 -97 5 0
-4 -13 -19 -29 -40 -42 -82 -198 -47 -177 4 3 8 -1 8 -9 0 -8 -5 -15 -10 -15
-5 0 -7 -9 -4 -19 3 -12 -3 -27 -14 -37 -10 -9 -19 -22 -19 -27 0 -6 9 -2 19
7 24 22 55 14 77 -20 9 -13 20 -24 24 -24 5 0 50 41 102 92 51 51 108 100 127
111 18 10 44 29 57 43 14 13 31 24 38 24 8 0 19 7 26 15 7 8 16 13 20 10 5 -3
15 2 23 10 9 8 20 15 25 15 6 0 13 6 16 13 3 8 8 7 16 -5 13 -22 30 -23 30 -3
0 9 6 12 15 9 11 -5 13 -10 5 -19 -8 -10 -5 -13 15 -11 14 0 25 4 25 8 0 4 7
5 15 2 8 -4 13 -9 11 -13 -3 -4 9 -13 25 -20 16 -7 36 -26 44 -41 20 -38 32
-44 38 -20 6 24 -26 68 -58 80 -17 7 -23 16 -21 35 2 17 -3 29 -15 36 -11 5
-19 15 -19 22 0 29 -105 101 -159 111 -14 2 -37 8 -51 13 -16 7 -55 5 -113 -3z"/>
<path d="M517 657 c-40 -35 -48 -49 -51 -83 -2 -23 3 -59 11 -80 7 -22 25 -81
38 -133 25 -97 72 -193 133 -274 29 -38 41 -47 64 -45 15 1 28 4 28 6 0 11
-68 101 -73 96 -3 -3 -19 18 -36 47 -16 29 -28 55 -26 57 2 2 16 -5 31 -17 49
-38 38 -12 -19 48 -32 33 -57 65 -56 73 0 8 2 9 5 2 3 -7 13 -10 23 -7 12 3
37 -16 79 -61 34 -36 66 -66 72 -66 6 0 38 -25 71 -57 92 -87 74 -36 -19 57
-44 42 -82 85 -85 93 -3 9 -24 25 -45 36 -50 25 -117 106 -125 150 -7 31 -2
58 25 154 6 20 9 39 7 42 -3 2 -26 -15 -52 -38z"/>
<path d="M1100 530 c0 -8 10 -25 23 -38 19 -20 22 -35 23 -100 1 -68 6 -122
19 -201 7 -39 39 -111 50 -111 32 1 36 16 19 81 -9 35 -17 104 -18 154 -2 78
-5 95 -28 130 -32 50 -88 104 -88 85z"/>
<path d="M1276 492 c10 -20 15 -51 12 -82 -3 -44 3 -60 47 -140 28 -49 55 -90
60 -90 6 0 21 9 35 19 l24 19 -18 39 c-29 62 -112 195 -145 233 l-31 35 16
-33z"/>
</g>
</svg>
