<?xml version="1.0" standalone="no"?>
<!DOCTYPE svg PUBLIC "-//W3C//DTD SVG 20010904//EN"
 "http://www.w3.org/TR/2001/REC-SVG-20010904/DTD/svg10.dtd">
<svg version="1.0" xmlns="http://www.w3.org/2000/svg"
 width="179.000000pt" height="179.000000pt" viewBox="0 0 179.000000 179.000000"
 preserveAspectRatio="xMidYMid meet">
<metadata>
Created by potrace 1.16, written by Peter Selinger 2001-2019
</metadata>
<g transform="translate(0.000000,179.000000) scale(0.100000,-0.100000)"
fill="#000000" stroke="none">
<path d="M795 1764 c-25 -26 -52 -85 -60 -134 -4 -25 -12 -51 -18 -58 -7 -10
-7 -12 2 -10 7 2 18 -11 25 -28 13 -29 12 -32 -14 -54 l-27 -22 24 -26 c17
-19 23 -34 20 -52 -3 -14 -8 -40 -12 -57 -3 -19 -2 -33 3 -33 6 0 13 -17 17
-37 11 -58 41 -108 88 -147 50 -41 86 -56 130 -55 30 1 31 1 7 8 -14 4 -24 12
-23 18 1 6 -5 10 -15 9 -11 -1 -18 8 -20 22 -2 13 -10 26 -17 28 -8 3 -21 29
-30 58 -15 46 -20 52 -40 49 -18 -4 -22 -1 -21 19 1 12 -5 32 -15 43 -29 36
-30 67 0 150 15 44 35 96 43 115 9 19 21 48 27 63 15 38 65 57 149 57 37 0 73
5 79 11 8 8 19 7 39 -4 16 -8 43 -18 59 -21 53 -12 90 -113 67 -187 -6 -19
-13 -54 -17 -79 l-6 -45 20 32 c11 18 23 44 27 57 3 14 12 30 19 36 9 7 12 30
9 73 -7 111 -12 118 -90 151 -141 58 -391 88 -429 50z"/>
<path d="M851 1519 c-16 -27 -16 -26 42 -23 48 3 46 0 -9 -11 -43 -9 -34 -30
14 -32 56 -2 82 -24 64 -53 -10 -16 -10 -20 0 -20 7 0 -14 -14 -47 -30 -32
-16 -63 -36 -67 -44 -9 -17 0 -48 13 -41 4 3 16 -6 25 -20 19 -30 76 -64 72
-43 -2 7 -12 20 -23 29 -29 25 -13 33 27 14 23 -11 28 -12 15 -2 -15 12 -15
16 -3 26 19 16 11 37 -16 44 -22 6 -19 33 4 29 16 -2 48 96 45 138 -4 47 -130
79 -156 39z"/>
<path d="M710 1190 c0 -5 -8 -10 -17 -10 -30 0 -131 -119 -174 -204 -30 -61
-39 -90 -39 -130 0 -57 5 -67 25 -59 10 3 12 18 8 53 -7 57 24 133 77 193 l33
38 24 -58 c14 -32 35 -85 48 -117 19 -51 24 -57 32 -41 12 20 3 50 -36 135
-21 46 -28 110 -12 110 5 0 14 -13 21 -29 6 -16 26 -42 43 -57 l31 -29 -27 33
c-27 34 -43 87 -34 119 3 10 8 28 12 41 4 13 2 22 -4 22 -6 0 -11 -4 -11 -10z"/>
<path d="M1108 1079 c-3 -9 -2 -38 3 -65 16 -90 18 -94 37 -87 16 7 16 6 -1
-20 -15 -23 -17 -54 -17 -250 l0 -224 30 -1 c24 -1 31 4 37 26 10 41 -15 444
-33 530 l-7 37 -7 -30 -8 -30 -2 30 c-2 45 -25 102 -32 84z"/>
</g>
</svg>
